<svg width="556" height="77" viewBox="0 0 556 77" fill="none" xmlns="http://www.w3.org/2000/svg">
<g filter="url(#filter0_d_4_2)">
<mask id="path-1-inside-1_4_2" fill="white">
<path d="M0 69.888V0.768002H18.72V27.36H28.32V0.768002H47.04V69.888H28.32V42.72H18.72V69.888H0Z"/>
<path d="M77.5755 60.576L75.7515 69.888H55.6875L69.5115 9.408L67.3035 0H96.2955L111.368 69.888H91.4955L89.6715 60.576H77.5755ZM79.4955 45.696H87.6555L83.6235 20.544L79.4955 45.696Z"/>
<path d="M120.015 69.888V13.92L114.735 0.768002H142.383C148.143 0.768002 152.911 1.568 156.687 3.168C160.463 4.704 163.279 7.328 165.135 11.04C166.991 14.752 167.919 19.808 167.919 26.208C167.919 35.04 165.807 41.408 161.583 45.312C157.359 49.216 150.959 51.168 142.383 51.168H138.735V69.888H120.015ZM138.735 37.44C141.807 37.44 144.079 36.608 145.551 34.944C147.087 33.28 147.855 30.304 147.855 26.016C147.855 22.752 147.567 20.288 146.991 18.624C146.479 16.96 145.551 15.84 144.207 15.264C142.927 14.624 141.103 14.304 138.735 14.304V37.44Z"/>
<path d="M178.511 69.888V13.92L173.231 0.768002H200.879C206.639 0.768002 211.407 1.568 215.183 3.168C218.959 4.704 221.775 7.328 223.631 11.04C225.487 14.752 226.415 19.808 226.415 26.208C226.415 35.04 224.303 41.408 220.079 45.312C215.855 49.216 209.455 51.168 200.879 51.168H197.231V69.888H178.511ZM197.231 37.44C200.303 37.44 202.575 36.608 204.047 34.944C205.583 33.28 206.351 30.304 206.351 26.016C206.351 22.752 206.063 20.288 205.487 18.624C204.975 16.96 204.047 15.84 202.703 15.264C201.423 14.624 199.599 14.304 197.231 14.304V37.44Z"/>
<path d="M247.805 48.768L230.333 0.768002H250.493L256.06 21.12L257.596 29.568H257.789L259.324 21.12L264.892 0.768002H284.092L266.525 48.768V69.888H247.805V48.768Z"/>
<path d="M320.603 69.888V0.768002H339.323V27.36H348.923V0.768002H367.643V69.888H348.923V42.72H339.323V69.888H320.603Z"/>
<path d="M403.938 70.848C397.666 70.848 392.61 69.792 388.77 67.68C384.93 65.504 382.114 61.856 380.322 56.736C378.594 51.552 377.73 44.448 377.73 35.424C377.73 26.4 378.594 19.328 380.322 14.208C382.114 9.024 384.93 5.376 388.77 3.264C392.61 1.088 397.666 0 403.938 0C410.21 0 415.266 1.088 419.106 3.264C422.946 5.376 425.73 9.024 427.458 14.208C429.25 19.328 430.146 26.4 430.146 35.424C430.146 44.448 429.25 51.552 427.458 56.736C425.73 61.856 422.946 65.504 419.106 67.68C415.266 69.792 410.21 70.848 403.938 70.848ZM409.986 35.232C409.986 29.728 409.794 25.536 409.41 22.656C409.09 19.712 408.482 17.696 407.586 16.608C406.754 15.456 405.538 14.88 403.938 14.88C402.402 14.88 401.186 15.456 400.29 16.608C399.394 17.696 398.754 19.712 398.37 22.656C398.05 25.536 397.89 29.728 397.89 35.232C397.89 40.672 398.05 44.896 398.37 47.904C398.754 50.912 399.394 53.024 400.29 54.24C401.186 55.392 402.402 55.968 403.938 55.968C405.538 55.968 406.754 55.392 407.586 54.24C408.482 53.024 409.09 50.912 409.41 47.904C409.794 44.896 409.986 40.672 409.986 35.232Z"/>
<path d="M458.46 46.368C458.46 49.76 458.844 52.224 459.612 53.76C460.38 55.232 461.596 55.968 463.26 55.968C464.988 55.968 466.204 55.232 466.908 53.76C467.676 52.224 468.06 49.76 468.06 46.368V0.768002H486.78V45.504C486.78 54.4 484.86 60.864 481.02 64.896C477.18 68.864 471.26 70.848 463.26 70.848C455.324 70.848 449.404 68.864 445.5 64.896C441.66 60.864 439.74 54.4 439.74 45.504V0.768002H458.46V46.368Z"/>
<path d="M520.817 0.768002C526.449 0.768002 531.153 1.504 534.929 2.976C538.705 4.384 541.521 6.784 543.377 10.176C545.297 13.504 546.256 18.08 546.256 23.904C546.256 28.768 545.521 32.768 544.049 35.904C542.577 38.976 540.336 41.44 537.328 43.296L549.041 69.888H528.208L520.625 47.424H517.552V69.888H498.832V13.92L493.552 0.768002H520.817ZM517.552 34.56C520.496 34.56 522.673 33.824 524.081 32.352C525.489 30.88 526.193 28.288 526.193 24.576C526.193 21.632 525.936 19.456 525.424 18.048C524.912 16.576 524.017 15.584 522.737 15.072C521.521 14.56 519.792 14.304 517.552 14.304V34.56Z"/>
</mask>
<path d="M0 69.888V0.768002H18.72V27.36H28.32V0.768002H47.04V69.888H28.32V42.72H18.72V69.888H0Z" fill="white"/>
<path d="M77.5755 60.576L75.7515 69.888H55.6875L69.5115 9.408L67.3035 0H96.2955L111.368 69.888H91.4955L89.6715 60.576H77.5755ZM79.4955 45.696H87.6555L83.6235 20.544L79.4955 45.696Z" fill="white"/>
<path d="M120.015 69.888V13.92L114.735 0.768002H142.383C148.143 0.768002 152.911 1.568 156.687 3.168C160.463 4.704 163.279 7.328 165.135 11.04C166.991 14.752 167.919 19.808 167.919 26.208C167.919 35.04 165.807 41.408 161.583 45.312C157.359 49.216 150.959 51.168 142.383 51.168H138.735V69.888H120.015ZM138.735 37.44C141.807 37.44 144.079 36.608 145.551 34.944C147.087 33.28 147.855 30.304 147.855 26.016C147.855 22.752 147.567 20.288 146.991 18.624C146.479 16.96 145.551 15.84 144.207 15.264C142.927 14.624 141.103 14.304 138.735 14.304V37.44Z" fill="white"/>
<path d="M178.511 69.888V13.92L173.231 0.768002H200.879C206.639 0.768002 211.407 1.568 215.183 3.168C218.959 4.704 221.775 7.328 223.631 11.04C225.487 14.752 226.415 19.808 226.415 26.208C226.415 35.04 224.303 41.408 220.079 45.312C215.855 49.216 209.455 51.168 200.879 51.168H197.231V69.888H178.511ZM197.231 37.44C200.303 37.44 202.575 36.608 204.047 34.944C205.583 33.28 206.351 30.304 206.351 26.016C206.351 22.752 206.063 20.288 205.487 18.624C204.975 16.96 204.047 15.84 202.703 15.264C201.423 14.624 199.599 14.304 197.231 14.304V37.44Z" fill="white"/>
<path d="M247.805 48.768L230.333 0.768002H250.493L256.06 21.12L257.596 29.568H257.789L259.324 21.12L264.892 0.768002H284.092L266.525 48.768V69.888H247.805V48.768Z" fill="white"/>
<path d="M320.603 69.888V0.768002H339.323V27.36H348.923V0.768002H367.643V69.888H348.923V42.72H339.323V69.888H320.603Z" fill="white"/>
<path d="M403.938 70.848C397.666 70.848 392.61 69.792 388.77 67.68C384.93 65.504 382.114 61.856 380.322 56.736C378.594 51.552 377.73 44.448 377.73 35.424C377.73 26.4 378.594 19.328 380.322 14.208C382.114 9.024 384.93 5.376 388.77 3.264C392.61 1.088 397.666 0 403.938 0C410.21 0 415.266 1.088 419.106 3.264C422.946 5.376 425.73 9.024 427.458 14.208C429.25 19.328 430.146 26.4 430.146 35.424C430.146 44.448 429.25 51.552 427.458 56.736C425.73 61.856 422.946 65.504 419.106 67.68C415.266 69.792 410.21 70.848 403.938 70.848ZM409.986 35.232C409.986 29.728 409.794 25.536 409.41 22.656C409.09 19.712 408.482 17.696 407.586 16.608C406.754 15.456 405.538 14.88 403.938 14.88C402.402 14.88 401.186 15.456 400.29 16.608C399.394 17.696 398.754 19.712 398.37 22.656C398.05 25.536 397.89 29.728 397.89 35.232C397.89 40.672 398.05 44.896 398.37 47.904C398.754 50.912 399.394 53.024 400.29 54.24C401.186 55.392 402.402 55.968 403.938 55.968C405.538 55.968 406.754 55.392 407.586 54.24C408.482 53.024 409.09 50.912 409.41 47.904C409.794 44.896 409.986 40.672 409.986 35.232Z" fill="white"/>
<path d="M458.46 46.368C458.46 49.76 458.844 52.224 459.612 53.76C460.38 55.232 461.596 55.968 463.26 55.968C464.988 55.968 466.204 55.232 466.908 53.76C467.676 52.224 468.06 49.76 468.06 46.368V0.768002H486.78V45.504C486.78 54.4 484.86 60.864 481.02 64.896C477.18 68.864 471.26 70.848 463.26 70.848C455.324 70.848 449.404 68.864 445.5 64.896C441.66 60.864 439.74 54.4 439.74 45.504V0.768002H458.46V46.368Z" fill="white"/>
<path d="M520.817 0.768002C526.449 0.768002 531.153 1.504 534.929 2.976C538.705 4.384 541.521 6.784 543.377 10.176C545.297 13.504 546.256 18.08 546.256 23.904C546.256 28.768 545.521 32.768 544.049 35.904C542.577 38.976 540.336 41.44 537.328 43.296L549.041 69.888H528.208L520.625 47.424H517.552V69.888H498.832V13.92L493.552 0.768002H520.817ZM517.552 34.56C520.496 34.56 522.673 33.824 524.081 32.352C525.489 30.88 526.193 28.288 526.193 24.576C526.193 21.632 525.936 19.456 525.424 18.048C524.912 16.576 524.017 15.584 522.737 15.072C521.521 14.56 519.792 14.304 517.552 14.304V34.56Z" fill="white"/>
<path d="M0 69.888V0.768002H18.72V27.36H28.32V0.768002H47.04V69.888H28.32V42.72H18.72V69.888H0Z" stroke="black" stroke-opacity="0.74" stroke-width="6" stroke-linejoin="round" mask="url(#path-1-inside-1_4_2)"/>
<path d="M77.5755 60.576L75.7515 69.888H55.6875L69.5115 9.408L67.3035 0H96.2955L111.368 69.888H91.4955L89.6715 60.576H77.5755ZM79.4955 45.696H87.6555L83.6235 20.544L79.4955 45.696Z" stroke="black" stroke-opacity="0.74" stroke-width="6" stroke-linejoin="round" mask="url(#path-1-inside-1_4_2)"/>
<path d="M120.015 69.888V13.92L114.735 0.768002H142.383C148.143 0.768002 152.911 1.568 156.687 3.168C160.463 4.704 163.279 7.328 165.135 11.04C166.991 14.752 167.919 19.808 167.919 26.208C167.919 35.04 165.807 41.408 161.583 45.312C157.359 49.216 150.959 51.168 142.383 51.168H138.735V69.888H120.015ZM138.735 37.44C141.807 37.44 144.079 36.608 145.551 34.944C147.087 33.28 147.855 30.304 147.855 26.016C147.855 22.752 147.567 20.288 146.991 18.624C146.479 16.96 145.551 15.84 144.207 15.264C142.927 14.624 141.103 14.304 138.735 14.304V37.44Z" stroke="black" stroke-opacity="0.74" stroke-width="6" stroke-linejoin="round" mask="url(#path-1-inside-1_4_2)"/>
<path d="M178.511 69.888V13.92L173.231 0.768002H200.879C206.639 0.768002 211.407 1.568 215.183 3.168C218.959 4.704 221.775 7.328 223.631 11.04C225.487 14.752 226.415 19.808 226.415 26.208C226.415 35.04 224.303 41.408 220.079 45.312C215.855 49.216 209.455 51.168 200.879 51.168H197.231V69.888H178.511ZM197.231 37.44C200.303 37.44 202.575 36.608 204.047 34.944C205.583 33.28 206.351 30.304 206.351 26.016C206.351 22.752 206.063 20.288 205.487 18.624C204.975 16.96 204.047 15.84 202.703 15.264C201.423 14.624 199.599 14.304 197.231 14.304V37.44Z" stroke="black" stroke-opacity="0.74" stroke-width="6" stroke-linejoin="round" mask="url(#path-1-inside-1_4_2)"/>
<path d="M247.805 48.768L230.333 0.768002H250.493L256.06 21.12L257.596 29.568H257.789L259.324 21.12L264.892 0.768002H284.092L266.525 48.768V69.888H247.805V48.768Z" stroke="black" stroke-opacity="0.74" stroke-width="6" stroke-linejoin="round" mask="url(#path-1-inside-1_4_2)"/>
<path d="M320.603 69.888V0.768002H339.323V27.36H348.923V0.768002H367.643V69.888H348.923V42.72H339.323V69.888H320.603Z" stroke="black" stroke-opacity="0.74" stroke-width="6" stroke-linejoin="round" mask="url(#path-1-inside-1_4_2)"/>
<path d="M403.938 70.848C397.666 70.848 392.61 69.792 388.77 67.68C384.93 65.504 382.114 61.856 380.322 56.736C378.594 51.552 377.73 44.448 377.73 35.424C377.73 26.4 378.594 19.328 380.322 14.208C382.114 9.024 384.93 5.376 388.77 3.264C392.61 1.088 397.666 0 403.938 0C410.21 0 415.266 1.088 419.106 3.264C422.946 5.376 425.73 9.024 427.458 14.208C429.25 19.328 430.146 26.4 430.146 35.424C430.146 44.448 429.25 51.552 427.458 56.736C425.73 61.856 422.946 65.504 419.106 67.68C415.266 69.792 410.21 70.848 403.938 70.848ZM409.986 35.232C409.986 29.728 409.794 25.536 409.41 22.656C409.09 19.712 408.482 17.696 407.586 16.608C406.754 15.456 405.538 14.88 403.938 14.88C402.402 14.88 401.186 15.456 400.29 16.608C399.394 17.696 398.754 19.712 398.37 22.656C398.05 25.536 397.89 29.728 397.89 35.232C397.89 40.672 398.05 44.896 398.37 47.904C398.754 50.912 399.394 53.024 400.29 54.24C401.186 55.392 402.402 55.968 403.938 55.968C405.538 55.968 406.754 55.392 407.586 54.24C408.482 53.024 409.09 50.912 409.41 47.904C409.794 44.896 409.986 40.672 409.986 35.232Z" stroke="black" stroke-opacity="0.74" stroke-width="6" stroke-linejoin="round" mask="url(#path-1-inside-1_4_2)"/>
<path d="M458.46 46.368C458.46 49.76 458.844 52.224 459.612 53.76C460.38 55.232 461.596 55.968 463.26 55.968C464.988 55.968 466.204 55.232 466.908 53.76C467.676 52.224 468.06 49.76 468.06 46.368V0.768002H486.78V45.504C486.78 54.4 484.86 60.864 481.02 64.896C477.18 68.864 471.26 70.848 463.26 70.848C455.324 70.848 449.404 68.864 445.5 64.896C441.66 60.864 439.74 54.4 439.74 45.504V0.768002H458.46V46.368Z" stroke="black" stroke-opacity="0.74" stroke-width="6" stroke-linejoin="round" mask="url(#path-1-inside-1_4_2)"/>
<path d="M520.817 0.768002C526.449 0.768002 531.153 1.504 534.929 2.976C538.705 4.384 541.521 6.784 543.377 10.176C545.297 13.504 546.256 18.08 546.256 23.904C546.256 28.768 545.521 32.768 544.049 35.904C542.577 38.976 540.336 41.44 537.328 43.296L549.041 69.888H528.208L520.625 47.424H517.552V69.888H498.832V13.92L493.552 0.768002H520.817ZM517.552 34.56C520.496 34.56 522.673 33.824 524.081 32.352C525.489 30.88 526.193 28.288 526.193 24.576C526.193 21.632 525.936 19.456 525.424 18.048C524.912 16.576 524.017 15.584 522.737 15.072C521.521 14.56 519.792 14.304 517.552 14.304V34.56Z" stroke="black" stroke-opacity="0.74" stroke-width="6" stroke-linejoin="round" mask="url(#path-1-inside-1_4_2)"/>
</g>
<defs>
<filter id="filter0_d_4_2" x="0" y="0" width="555.041" height="76.848" filterUnits="userSpaceOnUse" color-interpolation-filters="sRGB">
<feFlood flood-opacity="0" result="BackgroundImageFix"/>
<feColorMatrix in="SourceAlpha" type="matrix" values="0 0 0 0 0 0 0 0 0 0 0 0 0 0 0 0 0 0 127 0" result="hardAlpha"/>
<feOffset dx="6" dy="6"/>
<feComposite in2="hardAlpha" operator="out"/>
<feColorMatrix type="matrix" values="0 0 0 0 0.341176 0 0 0 0 0.34902 0 0 0 0 0.509804 0 0 0 1 0"/>
<feBlend mode="normal" in2="BackgroundImageFix" result="effect1_dropShadow_4_2"/>
<feBlend mode="normal" in="SourceGraphic" in2="effect1_dropShadow_4_2" result="shape"/>
</filter>
</defs>
</svg>
