<svg width="556" height="77" viewBox="0 0 556 77" fill="none" xmlns="http://www.w3.org/2000/svg">
<g filter="url(#filter0_d_3_3)">
<mask id="path-1-inside-1_3_3" fill="white">
<path d="M0.320007 70V0.880001H19.04V27.472H28.64V0.880001H47.36V70H28.64V42.832H19.04V70H0.320007Z"/>
<path d="M77.8955 60.688L76.0715 70H56.0075L69.8315 9.52L67.6235 0.112H96.6155L111.688 70H91.8155L89.9915 60.688H77.8955ZM79.8155 45.808H87.9755L83.9435 20.656L79.8155 45.808Z"/>
<path d="M120.335 70V14.032L115.055 0.880001H142.703C148.463 0.880001 153.231 1.68 157.007 3.28C160.783 4.816 163.599 7.44 165.455 11.152C167.311 14.864 168.239 19.92 168.239 26.32C168.239 35.152 166.127 41.52 161.903 45.424C157.679 49.328 151.279 51.28 142.703 51.28H139.055V70H120.335ZM139.055 37.552C142.127 37.552 144.399 36.72 145.871 35.056C147.407 33.392 148.175 30.416 148.175 26.128C148.175 22.864 147.887 20.4 147.311 18.736C146.799 17.072 145.871 15.952 144.527 15.376C143.247 14.736 141.423 14.416 139.055 14.416V37.552Z"/>
<path d="M178.831 70V14.032L173.551 0.880001H201.199C206.959 0.880001 211.727 1.68 215.503 3.28C219.279 4.816 222.095 7.44 223.951 11.152C225.807 14.864 226.735 19.92 226.735 26.32C226.735 35.152 224.623 41.52 220.399 45.424C216.175 49.328 209.775 51.28 201.199 51.28H197.551V70H178.831ZM197.551 37.552C200.623 37.552 202.895 36.72 204.367 35.056C205.903 33.392 206.671 30.416 206.671 26.128C206.671 22.864 206.383 20.4 205.807 18.736C205.295 17.072 204.367 15.952 203.023 15.376C201.743 14.736 199.919 14.416 197.551 14.416V37.552Z"/>
<path d="M248.125 48.88L230.653 0.880001H250.813L256.38 21.232L257.917 29.68H258.109L259.645 21.232L265.212 0.880001H284.413L266.845 48.88V70H248.125V48.88Z"/>
<path d="M320.923 70V0.880001H339.643V27.472H349.243V0.880001H367.963V70H349.243V42.832H339.643V70H320.923Z"/>
<path d="M404.258 70.96C397.986 70.96 392.93 69.904 389.09 67.792C385.25 65.616 382.434 61.968 380.642 56.848C378.914 51.664 378.05 44.56 378.05 35.536C378.05 26.512 378.914 19.44 380.642 14.32C382.434 9.136 385.25 5.488 389.09 3.376C392.93 1.2 397.986 0.112 404.258 0.112C410.53 0.112 415.586 1.2 419.426 3.376C423.266 5.488 426.05 9.136 427.778 14.32C429.57 19.44 430.466 26.512 430.466 35.536C430.466 44.56 429.57 51.664 427.778 56.848C426.05 61.968 423.266 65.616 419.426 67.792C415.586 69.904 410.53 70.96 404.258 70.96ZM410.306 35.344C410.306 29.84 410.114 25.648 409.73 22.768C409.41 19.824 408.802 17.808 407.906 16.72C407.074 15.568 405.858 14.992 404.258 14.992C402.722 14.992 401.506 15.568 400.61 16.72C399.714 17.808 399.074 19.824 398.69 22.768C398.37 25.648 398.21 29.84 398.21 35.344C398.21 40.784 398.37 45.008 398.69 48.016C399.074 51.024 399.714 53.136 400.61 54.352C401.506 55.504 402.722 56.08 404.258 56.08C405.858 56.08 407.074 55.504 407.906 54.352C408.802 53.136 409.41 51.024 409.73 48.016C410.114 45.008 410.306 40.784 410.306 35.344Z"/>
<path d="M458.78 46.48C458.78 49.872 459.164 52.336 459.932 53.872C460.7 55.344 461.916 56.08 463.58 56.08C465.308 56.08 466.524 55.344 467.228 53.872C467.996 52.336 468.38 49.872 468.38 46.48V0.880001H487.1V45.616C487.1 54.512 485.18 60.976 481.34 65.008C477.5 68.976 471.58 70.96 463.58 70.96C455.644 70.96 449.724 68.976 445.82 65.008C441.98 60.976 440.06 54.512 440.06 45.616V0.880001H458.78V46.48Z"/>
<path d="M521.137 0.880001C526.769 0.880001 531.473 1.616 535.249 3.088C539.025 4.496 541.841 6.896 543.697 10.288C545.617 13.616 546.576 18.192 546.576 24.016C546.576 28.88 545.841 32.88 544.369 36.016C542.897 39.088 540.656 41.552 537.648 43.408L549.361 70H528.529L520.945 47.536H517.872V70H499.152V14.032L493.872 0.880001H521.137ZM517.872 34.672C520.816 34.672 522.993 33.936 524.401 32.464C525.809 30.992 526.513 28.4 526.513 24.688C526.513 21.744 526.257 19.568 525.745 18.16C525.233 16.688 524.337 15.696 523.057 15.184C521.841 14.672 520.112 14.416 517.872 14.416V34.672Z"/>
</mask>
<path d="M0.320007 70V0.880001H19.04V27.472H28.64V0.880001H47.36V70H28.64V42.832H19.04V70H0.320007Z" fill="white"/>
<path d="M77.8955 60.688L76.0715 70H56.0075L69.8315 9.52L67.6235 0.112H96.6155L111.688 70H91.8155L89.9915 60.688H77.8955ZM79.8155 45.808H87.9755L83.9435 20.656L79.8155 45.808Z" fill="white"/>
<path d="M120.335 70V14.032L115.055 0.880001H142.703C148.463 0.880001 153.231 1.68 157.007 3.28C160.783 4.816 163.599 7.44 165.455 11.152C167.311 14.864 168.239 19.92 168.239 26.32C168.239 35.152 166.127 41.52 161.903 45.424C157.679 49.328 151.279 51.28 142.703 51.28H139.055V70H120.335ZM139.055 37.552C142.127 37.552 144.399 36.72 145.871 35.056C147.407 33.392 148.175 30.416 148.175 26.128C148.175 22.864 147.887 20.4 147.311 18.736C146.799 17.072 145.871 15.952 144.527 15.376C143.247 14.736 141.423 14.416 139.055 14.416V37.552Z" fill="white"/>
<path d="M178.831 70V14.032L173.551 0.880001H201.199C206.959 0.880001 211.727 1.68 215.503 3.28C219.279 4.816 222.095 7.44 223.951 11.152C225.807 14.864 226.735 19.92 226.735 26.32C226.735 35.152 224.623 41.52 220.399 45.424C216.175 49.328 209.775 51.28 201.199 51.28H197.551V70H178.831ZM197.551 37.552C200.623 37.552 202.895 36.72 204.367 35.056C205.903 33.392 206.671 30.416 206.671 26.128C206.671 22.864 206.383 20.4 205.807 18.736C205.295 17.072 204.367 15.952 203.023 15.376C201.743 14.736 199.919 14.416 197.551 14.416V37.552Z" fill="white"/>
<path d="M248.125 48.88L230.653 0.880001H250.813L256.38 21.232L257.917 29.68H258.109L259.645 21.232L265.212 0.880001H284.413L266.845 48.88V70H248.125V48.88Z" fill="white"/>
<path d="M320.923 70V0.880001H339.643V27.472H349.243V0.880001H367.963V70H349.243V42.832H339.643V70H320.923Z" fill="white"/>
<path d="M404.258 70.96C397.986 70.96 392.93 69.904 389.09 67.792C385.25 65.616 382.434 61.968 380.642 56.848C378.914 51.664 378.05 44.56 378.05 35.536C378.05 26.512 378.914 19.44 380.642 14.32C382.434 9.136 385.25 5.488 389.09 3.376C392.93 1.2 397.986 0.112 404.258 0.112C410.53 0.112 415.586 1.2 419.426 3.376C423.266 5.488 426.05 9.136 427.778 14.32C429.57 19.44 430.466 26.512 430.466 35.536C430.466 44.56 429.57 51.664 427.778 56.848C426.05 61.968 423.266 65.616 419.426 67.792C415.586 69.904 410.53 70.96 404.258 70.96ZM410.306 35.344C410.306 29.84 410.114 25.648 409.73 22.768C409.41 19.824 408.802 17.808 407.906 16.72C407.074 15.568 405.858 14.992 404.258 14.992C402.722 14.992 401.506 15.568 400.61 16.72C399.714 17.808 399.074 19.824 398.69 22.768C398.37 25.648 398.21 29.84 398.21 35.344C398.21 40.784 398.37 45.008 398.69 48.016C399.074 51.024 399.714 53.136 400.61 54.352C401.506 55.504 402.722 56.08 404.258 56.08C405.858 56.08 407.074 55.504 407.906 54.352C408.802 53.136 409.41 51.024 409.73 48.016C410.114 45.008 410.306 40.784 410.306 35.344Z" fill="white"/>
<path d="M458.78 46.48C458.78 49.872 459.164 52.336 459.932 53.872C460.7 55.344 461.916 56.08 463.58 56.08C465.308 56.08 466.524 55.344 467.228 53.872C467.996 52.336 468.38 49.872 468.38 46.48V0.880001H487.1V45.616C487.1 54.512 485.18 60.976 481.34 65.008C477.5 68.976 471.58 70.96 463.58 70.96C455.644 70.96 449.724 68.976 445.82 65.008C441.98 60.976 440.06 54.512 440.06 45.616V0.880001H458.78V46.48Z" fill="white"/>
<path d="M521.137 0.880001C526.769 0.880001 531.473 1.616 535.249 3.088C539.025 4.496 541.841 6.896 543.697 10.288C545.617 13.616 546.576 18.192 546.576 24.016C546.576 28.88 545.841 32.88 544.369 36.016C542.897 39.088 540.656 41.552 537.648 43.408L549.361 70H528.529L520.945 47.536H517.872V70H499.152V14.032L493.872 0.880001H521.137ZM517.872 34.672C520.816 34.672 522.993 33.936 524.401 32.464C525.809 30.992 526.513 28.4 526.513 24.688C526.513 21.744 526.257 19.568 525.745 18.16C525.233 16.688 524.337 15.696 523.057 15.184C521.841 14.672 520.112 14.416 517.872 14.416V34.672Z" fill="white"/>
<path d="M0.320007 70V0.880001H19.04V27.472H28.64V0.880001H47.36V70H28.64V42.832H19.04V70H0.320007Z" stroke="black" stroke-opacity="0.74" stroke-width="6" stroke-linejoin="round" mask="url(#path-1-inside-1_3_3)"/>
<path d="M77.8955 60.688L76.0715 70H56.0075L69.8315 9.52L67.6235 0.112H96.6155L111.688 70H91.8155L89.9915 60.688H77.8955ZM79.8155 45.808H87.9755L83.9435 20.656L79.8155 45.808Z" stroke="black" stroke-opacity="0.74" stroke-width="6" stroke-linejoin="round" mask="url(#path-1-inside-1_3_3)"/>
<path d="M120.335 70V14.032L115.055 0.880001H142.703C148.463 0.880001 153.231 1.68 157.007 3.28C160.783 4.816 163.599 7.44 165.455 11.152C167.311 14.864 168.239 19.92 168.239 26.32C168.239 35.152 166.127 41.52 161.903 45.424C157.679 49.328 151.279 51.28 142.703 51.28H139.055V70H120.335ZM139.055 37.552C142.127 37.552 144.399 36.72 145.871 35.056C147.407 33.392 148.175 30.416 148.175 26.128C148.175 22.864 147.887 20.4 147.311 18.736C146.799 17.072 145.871 15.952 144.527 15.376C143.247 14.736 141.423 14.416 139.055 14.416V37.552Z" stroke="black" stroke-opacity="0.74" stroke-width="6" stroke-linejoin="round" mask="url(#path-1-inside-1_3_3)"/>
<path d="M178.831 70V14.032L173.551 0.880001H201.199C206.959 0.880001 211.727 1.68 215.503 3.28C219.279 4.816 222.095 7.44 223.951 11.152C225.807 14.864 226.735 19.92 226.735 26.32C226.735 35.152 224.623 41.52 220.399 45.424C216.175 49.328 209.775 51.28 201.199 51.28H197.551V70H178.831ZM197.551 37.552C200.623 37.552 202.895 36.72 204.367 35.056C205.903 33.392 206.671 30.416 206.671 26.128C206.671 22.864 206.383 20.4 205.807 18.736C205.295 17.072 204.367 15.952 203.023 15.376C201.743 14.736 199.919 14.416 197.551 14.416V37.552Z" stroke="black" stroke-opacity="0.74" stroke-width="6" stroke-linejoin="round" mask="url(#path-1-inside-1_3_3)"/>
<path d="M248.125 48.88L230.653 0.880001H250.813L256.38 21.232L257.917 29.68H258.109L259.645 21.232L265.212 0.880001H284.413L266.845 48.88V70H248.125V48.88Z" stroke="black" stroke-opacity="0.74" stroke-width="6" stroke-linejoin="round" mask="url(#path-1-inside-1_3_3)"/>
<path d="M320.923 70V0.880001H339.643V27.472H349.243V0.880001H367.963V70H349.243V42.832H339.643V70H320.923Z" stroke="black" stroke-opacity="0.74" stroke-width="6" stroke-linejoin="round" mask="url(#path-1-inside-1_3_3)"/>
<path d="M404.258 70.96C397.986 70.96 392.93 69.904 389.09 67.792C385.25 65.616 382.434 61.968 380.642 56.848C378.914 51.664 378.05 44.56 378.05 35.536C378.05 26.512 378.914 19.44 380.642 14.32C382.434 9.136 385.25 5.488 389.09 3.376C392.93 1.2 397.986 0.112 404.258 0.112C410.53 0.112 415.586 1.2 419.426 3.376C423.266 5.488 426.05 9.136 427.778 14.32C429.57 19.44 430.466 26.512 430.466 35.536C430.466 44.56 429.57 51.664 427.778 56.848C426.05 61.968 423.266 65.616 419.426 67.792C415.586 69.904 410.53 70.96 404.258 70.96ZM410.306 35.344C410.306 29.84 410.114 25.648 409.73 22.768C409.41 19.824 408.802 17.808 407.906 16.72C407.074 15.568 405.858 14.992 404.258 14.992C402.722 14.992 401.506 15.568 400.61 16.72C399.714 17.808 399.074 19.824 398.69 22.768C398.37 25.648 398.21 29.84 398.21 35.344C398.21 40.784 398.37 45.008 398.69 48.016C399.074 51.024 399.714 53.136 400.61 54.352C401.506 55.504 402.722 56.08 404.258 56.08C405.858 56.08 407.074 55.504 407.906 54.352C408.802 53.136 409.41 51.024 409.73 48.016C410.114 45.008 410.306 40.784 410.306 35.344Z" stroke="black" stroke-opacity="0.74" stroke-width="6" stroke-linejoin="round" mask="url(#path-1-inside-1_3_3)"/>
<path d="M458.78 46.48C458.78 49.872 459.164 52.336 459.932 53.872C460.7 55.344 461.916 56.08 463.58 56.08C465.308 56.08 466.524 55.344 467.228 53.872C467.996 52.336 468.38 49.872 468.38 46.48V0.880001H487.1V45.616C487.1 54.512 485.18 60.976 481.34 65.008C477.5 68.976 471.58 70.96 463.58 70.96C455.644 70.96 449.724 68.976 445.82 65.008C441.98 60.976 440.06 54.512 440.06 45.616V0.880001H458.78V46.48Z" stroke="black" stroke-opacity="0.74" stroke-width="6" stroke-linejoin="round" mask="url(#path-1-inside-1_3_3)"/>
<path d="M521.137 0.880001C526.769 0.880001 531.473 1.616 535.249 3.088C539.025 4.496 541.841 6.896 543.697 10.288C545.617 13.616 546.576 18.192 546.576 24.016C546.576 28.88 545.841 32.88 544.369 36.016C542.897 39.088 540.656 41.552 537.648 43.408L549.361 70H528.529L520.945 47.536H517.872V70H499.152V14.032L493.872 0.880001H521.137ZM517.872 34.672C520.816 34.672 522.993 33.936 524.401 32.464C525.809 30.992 526.513 28.4 526.513 24.688C526.513 21.744 526.257 19.568 525.745 18.16C525.233 16.688 524.337 15.696 523.057 15.184C521.841 14.672 520.112 14.416 517.872 14.416V34.672Z" stroke="black" stroke-opacity="0.74" stroke-width="6" stroke-linejoin="round" mask="url(#path-1-inside-1_3_3)"/>
</g>
<defs>
<filter id="filter0_d_3_3" x="0.320007" y="0.112" width="555.041" height="76.848" filterUnits="userSpaceOnUse" color-interpolation-filters="sRGB">
<feFlood flood-opacity="0" result="BackgroundImageFix"/>
<feColorMatrix in="SourceAlpha" type="matrix" values="0 0 0 0 0 0 0 0 0 0 0 0 0 0 0 0 0 0 127 0" result="hardAlpha"/>
<feOffset dx="6" dy="6"/>
<feComposite in2="hardAlpha" operator="out"/>
<feColorMatrix type="matrix" values="0 0 0 0 0.811765 0 0 0 0 0.784314 0 0 0 0 0.211765 0 0 0 1 0"/>
<feBlend mode="normal" in2="BackgroundImageFix" result="effect1_dropShadow_3_3"/>
<feBlend mode="normal" in="SourceGraphic" in2="effect1_dropShadow_3_3" result="shape"/>
</filter>
</defs>
</svg>
